M48
; DRILL file KiCad 10.0.4 date 2026-07-18T18:49:25
; FORMAT={-:-/ absolute / metric / decimal}
; #@! TF.CreationDate,2026-07-18T18:49:25-07:00
; #@! TF.GenerationSoftware,Kicad,Pcbnew,10.0.4
; #@! TF.FileFunction,MixedPlating,1,2
FMAT,2
METRIC
; #@! TA.AperFunction,Plated,PTH,ComponentDrill
T1C0.800
; #@! TA.AperFunction,Plated,PTH,ComponentDrill
T2C0.900
; #@! TA.AperFunction,Plated,PTH,ComponentDrill
T3C1.000
; #@! TA.AperFunction,Plated,PTH,ComponentDrill
T4C1.100
; #@! TA.AperFunction,Plated,PTH,ComponentDrill
T5C1.200
; #@! TA.AperFunction,Plated,PTH,ComponentDrill
T6C1.300
; #@! TA.AperFunction,NonPlated,NPTH,ComponentDrill
T7C3.200
%
G90
G05
T1
X81.811Y-92.448
X89.431Y-92.448
X110.69Y-82.88
X118.31Y-82.88
X121.07Y-82.88
X122.88Y-92.5
X128.69Y-82.88
X130.5Y-92.5
T2
X74.874Y-92.422
X77.414Y-92.422
X135.46Y-92.5
X138.0Y-92.5
T3
X74.96Y-71.5
X75.84Y-58.0
X75.84Y-60.54
X77.5Y-71.5
X78.38Y-58.0
X78.38Y-60.54
X80.04Y-71.5
X80.92Y-58.0
X80.92Y-60.54
X82.58Y-71.5
X83.46Y-58.0
X83.46Y-60.54
X86.0Y-58.0
X86.0Y-60.54
X88.54Y-58.0
X88.54Y-60.54
X91.08Y-58.0
X91.08Y-60.54
X93.62Y-58.0
X93.62Y-60.54
X96.16Y-58.0
X96.16Y-60.54
X98.7Y-58.0
X98.7Y-60.54
X101.24Y-58.0
X101.24Y-60.54
X103.78Y-58.0
X103.78Y-60.54
X106.32Y-58.0
X106.32Y-60.54
X108.86Y-58.0
X108.86Y-60.54
X111.4Y-58.0
X111.4Y-60.54
X113.94Y-58.0
X113.94Y-60.54
X116.48Y-58.0
X116.48Y-60.54
X119.02Y-58.0
X119.02Y-60.54
X121.56Y-58.0
X121.56Y-60.54
X124.1Y-58.0
X124.1Y-60.54
T4
X117.11Y-75.88
X119.65Y-75.88
X122.19Y-75.88
T5
X57.0Y-103.5
X57.0Y-108.5
X69.5Y-103.5
X69.5Y-108.5
X81.5Y-103.5
X81.5Y-108.5
X94.0Y-103.5
X94.0Y-108.5
X106.0Y-103.5
X106.0Y-108.5
X118.5Y-103.5
X118.5Y-108.5
X130.5Y-103.5
X130.5Y-108.5
X143.0Y-103.5
X143.0Y-108.5
T6
X137.0Y-68.38
X137.0Y-73.46
X137.0Y-78.54
X137.0Y-83.62
T7
X58.0Y-59.5
X58.0Y-120.5
X138.987Y-59.479
X139.0Y-120.5
M30
